# xmcd
#
# Track frame offsets:
#	180
#	15144
#	28731
#	40859
#	52511
#	64216
#	75415
#	87408
#	97245
#	108505
#	121849
#	133853
#
# Disc length: 1965
#
# Revision: 1
# Processed by: cddbd v1.5.1PL0 Copyright (c) Steve Scherf et al.
# Submitted via: CD-DA_X-Tractor v0.23
# Normalized: r0:TDELIM( - )
#
DISCID=8f07ab0c
DTITLE=Various Artist - Super Box Of Country Favorites Disc 2
DYEAR=2003
DGENRE=
TTITLE0=Jeannie C. Riley - Harper Valley PTA
TTITLE1=David Houston - Almost Persuaded
TTITLE2=Jody Miller - Queen Of The House
TTITLE3=Sammi Smith - Help Me Make It Through The Night
TTITLE4=Henson Cargil - Skip A Rope
TTITLE5=Stonewall Jackson - Waterloo
TTITLE6=Skeeter Davis - The End Of The World
TTITLE7=Ned Miller - From A Jack To A King
TTITLE8=Don Gibson - Oh, Lonesome Me
TTITLE9=Lynn Anderson - Top Of The World
TTITLE10=Jack Greene - There Goes My Everything
TTITLE11=Dickey Lee - 9,999,999 Tears
EXTD=
EXTT0=
EXTT1=
EXTT2=
EXTT3=
EXTT4=
EXTT5=
EXTT6=
EXTT7=
EXTT8=
EXTT9=
EXTT10=
EXTT11=
PLAYORDER=
